<svg xmlns="http://www.w3.org/2000/svg" width="2200" height="863" viewBox="0 0 2200 863" font-family="Arial, Helvetica, sans-serif">
<rect width="2200" height="863" fill="#fff"/>
<text x="12" y="20" font-size="16" font-weight="bold" fill="#1F2A24">Part 8 — Operate and Maintain</text>
<text x="12" y="36" font-size="9.6" fill="#5B6B62">Level-1 cross-functional map · as specified · handover, turnover and the maintenance chain · gates 21, 30 and 34 · 8 September 2026</text>
<text x="2188" y="20" font-size="9.6" text-anchor="end" fill="#5B6B62">Magnus Workspace Platform · Process Maps and RACI</text>
<rect x="8" y="84.0" width="2184" height="84.2" fill="#FFFFFF" stroke="#D6DED9"/>
<rect x="8" y="84.0" width="124" height="84.2" fill="#154D2C"/>
<text x="70.0" y="123.6" font-size="11" font-weight="bold" text-anchor="middle" fill="#fff">External:</text>
<text x="70.0" y="136.6" font-size="11" font-weight="bold" text-anchor="middle" fill="#fff">Client</text>
<rect x="8" y="168.2" width="2184" height="147.8" fill="#F3F6F4" stroke="#D6DED9"/>
<rect x="8" y="168.2" width="124" height="147.8" fill="#154D2C"/>
<text x="70.0" y="246.1" font-size="11" font-weight="bold" text-anchor="middle" fill="#fff">Executive</text>
<rect x="8" y="316.0" width="2184" height="113.8" fill="#FFFFFF" stroke="#D6DED9"/>
<rect x="8" y="316.0" width="124" height="113.8" fill="#154D2C"/>
<text x="70.0" y="370.4" font-size="11" font-weight="bold" text-anchor="middle" fill="#fff">Operations and</text>
<text x="70.0" y="383.4" font-size="11" font-weight="bold" text-anchor="middle" fill="#fff">Maintenance</text>
<rect x="8" y="429.8" width="2184" height="105.2" fill="#F3F6F4" stroke="#D6DED9"/>
<rect x="8" y="429.8" width="124" height="105.2" fill="#154D2C"/>
<text x="70.0" y="486.4" font-size="11" font-weight="bold" text-anchor="middle" fill="#fff">Projects</text>
<rect x="8" y="535.0" width="2184" height="95.2" fill="#FFFFFF" stroke="#D6DED9"/>
<rect x="8" y="535.0" width="124" height="95.2" fill="#154D2C"/>
<text x="70.0" y="586.6" font-size="11" font-weight="bold" text-anchor="middle" fill="#fff">Finance</text>
<rect x="8" y="630.2" width="2184" height="141.2" fill="#EAF1EC" stroke="#D6DED9"/>
<rect x="8" y="630.2" width="124" height="141.2" fill="#3C5A48"/>
<text x="70.0" y="704.8" font-size="11" font-weight="bold" text-anchor="middle" fill="#fff">The Platform</text>
<rect x="147.0" y="439.8" width="132" height="42.6" rx="5" fill="#fff" stroke="#1F6F3F" stroke-width="1.3"/>
<text x="213.0" y="452.3" font-size="9" text-anchor="middle" fill="#1F2A24">Commissioning and</text>
<text x="213.0" y="463.3" font-size="9" text-anchor="middle" fill="#1F2A24">snagging complete</text>
<text x="213.0" y="474.3" font-size="7.4" text-anchor="middle" fill="#5B6B62">project_blocks 8 and 9</text>
<text x="213.0" y="494.2" font-size="7.6" font-style="italic" text-anchor="middle" fill="#E4702A">⚠ completion is computed</text>
<text x="213.0" y="503.6" font-size="7.6" font-style="italic" text-anchor="middle" fill="#E4702A">from site activities; the</text>
<text x="213.0" y="513.0" font-size="7.6" font-style="italic" text-anchor="middle" fill="#E4702A">project stage still cannot</text>
<text x="213.0" y="522.4" font-size="7.6" font-style="italic" text-anchor="middle" fill="#E4702A">move — it is stuck in design</text>
<rect x="297.0" y="94.0" width="132" height="31.0" rx="5" fill="#fff" stroke="#8A6D3B" stroke-width="1.3" stroke-dasharray="4,3"/>
<text x="363.0" y="106.5" font-size="9" text-anchor="middle" fill="#1F2A24">The client accepts the</text>
<text x="363.0" y="117.5" font-size="9" text-anchor="middle" fill="#1F2A24">system</text>
<text x="363.0" y="136.8" font-size="7.6" font-style="italic" text-anchor="middle" fill="#E4702A">⚠ there is no acceptance</text>
<text x="363.0" y="146.2" font-size="7.6" font-style="italic" text-anchor="middle" fill="#E4702A">record, no certificate,</text>
<text x="363.0" y="155.6" font-size="7.6" font-style="italic" text-anchor="middle" fill="#E4702A">nothing to sign</text>
<rect x="447.0" y="197.0" width="132" height="31.6" rx="5" fill="#fff" stroke="#1F6F3F" stroke-width="1.3"/>
<text x="513.0" y="209.5" font-size="9" text-anchor="middle" fill="#1F2A24">Record the turnover date</text>
<text x="513.0" y="220.5" font-size="7.4" text-anchor="middle" fill="#5B6B62">projects [turnoverDate]</text>
<rect x="468.8" y="231.6" width="88.4" height="13" rx="6.5" fill="#1F6F3F"/>
<text x="513.0" y="241.2" font-size="7.6" font-weight="bold" text-anchor="middle" fill="#fff">G21 Director·COO</text>
<text x="513.0" y="256.4" font-size="7.6" font-style="italic" text-anchor="middle" fill="#E4702A">⚠ G21 has no code anywhere;</text>
<text x="513.0" y="265.8" font-size="7.6" font-style="italic" text-anchor="middle" fill="#E4702A">recordTurnoverDate is</text>
<text x="513.0" y="275.2" font-size="7.6" font-style="italic" text-anchor="middle" fill="#E4702A">ungated and anyone can call</text>
<text x="513.0" y="284.6" font-size="7.6" font-style="italic" text-anchor="middle" fill="#E4702A">it</text>
<rect x="597.0" y="648.8" width="132" height="42.6" rx="5" fill="#F6F8F6" stroke="#5B6B62" stroke-width="1.3"/>
<text x="663.0" y="661.3" font-size="9" text-anchor="middle" fill="#1F2A24">Retention release and</text>
<text x="663.0" y="672.3" font-size="9" text-anchor="middle" fill="#1F2A24">warranty expiry derived</text>
<text x="663.0" y="683.3" font-size="7.4" text-anchor="middle" fill="#5B6B62">projects</text>
<text x="663.0" y="703.2" font-size="7.6" font-style="italic" text-anchor="middle" fill="#E4702A">⚠ both dates are derived</text>
<text x="663.0" y="712.6" font-size="7.6" font-style="italic" text-anchor="middle" fill="#E4702A">from the contract in the</text>
<text x="663.0" y="722.0" font-size="7.6" font-style="italic" text-anchor="middle" fill="#E4702A">same transaction — correct,</text>
<text x="663.0" y="731.4" font-size="7.6" font-style="italic" text-anchor="middle" fill="#E4702A">and one of the cleanest</text>
<text x="663.0" y="740.8" font-size="7.6" font-style="italic" text-anchor="middle" fill="#E4702A">pieces of code in the</text>
<text x="663.0" y="750.2" font-size="7.6" font-style="italic" text-anchor="middle" fill="#E4702A">product</text>
<rect x="747.0" y="545.0" width="132" height="42.0" rx="5" fill="#fff" stroke="#1F6F3F" stroke-width="1.3"/>
<text x="813.0" y="557.5" font-size="9" text-anchor="middle" fill="#1F2A24">Raise the retention</text>
<text x="813.0" y="568.5" font-size="9" text-anchor="middle" fill="#1F2A24">invoice at the release</text>
<text x="813.0" y="579.5" font-size="9" text-anchor="middle" fill="#1F2A24">date</text>
<text x="813.0" y="598.8" font-size="7.6" font-style="italic" text-anchor="middle" fill="#E4702A">⚠ G12 has no record — see</text>
<text x="813.0" y="608.2" font-size="7.6" font-style="italic" text-anchor="middle" fill="#E4702A">Part 6. The date is derived</text>
<text x="813.0" y="617.6" font-size="7.6" font-style="italic" text-anchor="middle" fill="#E4702A">and then nothing uses it</text>
<rect x="147.0" y="335.0" width="132" height="42.6" rx="5" fill="#fff" stroke="#1F6F3F" stroke-width="1.3"/>
<text x="213.0" y="347.5" font-size="9" text-anchor="middle" fill="#1F2A24">Create the maintenance</text>
<text x="213.0" y="358.5" font-size="9" text-anchor="middle" fill="#1F2A24">schedule</text>
<text x="213.0" y="369.5" font-size="7.4" text-anchor="middle" fill="#5B6B62">om_schedules</text>
<text x="213.0" y="389.4" font-size="7.6" font-style="italic" text-anchor="middle" fill="#E4702A">⚠ frequency in calendar</text>
<text x="213.0" y="398.8" font-size="7.6" font-style="italic" text-anchor="middle" fill="#E4702A">days; a next visit date is</text>
<text x="213.0" y="408.2" font-size="7.6" font-style="italic" text-anchor="middle" fill="#E4702A">set once</text>
<rect x="297.0" y="331.1" width="132" height="31.6" rx="5" fill="#fff" stroke="#1F6F3F" stroke-width="1.3"/>
<text x="363.0" y="343.6" font-size="9" text-anchor="middle" fill="#1F2A24">Create a visit</text>
<text x="363.0" y="354.6" font-size="7.4" text-anchor="middle" fill="#5B6B62">om_visits [draft]</text>
<text x="363.0" y="374.5" font-size="7.6" font-style="italic" text-anchor="middle" fill="#E4702A">⚠ refused after warranty</text>
<text x="363.0" y="383.9" font-size="7.6" font-style="italic" text-anchor="middle" fill="#E4702A">expiry, with a readable</text>
<text x="363.0" y="393.3" font-size="7.6" font-style="italic" text-anchor="middle" fill="#E4702A">message. The schema calls</text>
<text x="363.0" y="402.7" font-size="7.6" font-style="italic" text-anchor="middle" fill="#E4702A">this hard block 5 — a fourth</text>
<text x="363.0" y="412.1" font-size="7.6" font-style="italic" text-anchor="middle" fill="#E4702A">meaning of that number</text>
<rect x="447.0" y="326.0" width="132" height="51.2" rx="5" fill="#fff" stroke="#1F6F3F" stroke-width="1.3"/>
<text x="513.0" y="338.5" font-size="9" text-anchor="middle" fill="#1F2A24">Work the visit — nine</text>
<text x="513.0" y="349.5" font-size="9" text-anchor="middle" fill="#1F2A24">activity types</text>
<text x="513.0" y="360.5" font-size="7.4" text-anchor="middle" fill="#5B6B62">om_visits [in_progress →</text>
<text x="513.0" y="369.1" font-size="7.4" text-anchor="middle" fill="#5B6B62">completed]</text>
<text x="513.0" y="389.0" font-size="7.6" font-style="italic" text-anchor="middle" fill="#E4702A">⚠ three outcomes per</text>
<text x="513.0" y="398.4" font-size="7.6" font-style="italic" text-anchor="middle" fill="#E4702A">activity: satisfactory,</text>
<text x="513.0" y="407.8" font-size="7.6" font-style="italic" text-anchor="middle" fill="#E4702A">requires attention, not</text>
<text x="513.0" y="417.2" font-size="7.6" font-style="italic" text-anchor="middle" fill="#E4702A">applicable</text>
<rect x="597.0" y="335.8" width="132" height="31.6" rx="5" fill="#fff" stroke="#1F6F3F" stroke-width="1.3"/>
<text x="663.0" y="348.3" font-size="9" text-anchor="middle" fill="#1F2A24">Record readings</text>
<text x="663.0" y="359.3" font-size="7.4" text-anchor="middle" fill="#5B6B62">om_readings</text>
<text x="663.0" y="379.2" font-size="7.6" font-style="italic" text-anchor="middle" fill="#E4702A">⚠ reading type and unit are</text>
<text x="663.0" y="388.6" font-size="7.6" font-style="italic" text-anchor="middle" fill="#E4702A">free text — energy,</text>
<text x="663.0" y="398.0" font-size="7.6" font-style="italic" text-anchor="middle" fill="#E4702A">irradiation and performance</text>
<text x="663.0" y="407.4" font-size="7.6" font-style="italic" text-anchor="middle" fill="#E4702A">ratio are not a fixed list</text>
<rect x="747.0" y="331.9" width="132" height="48.8" rx="5" fill="#fff" stroke="#1F6F3F" stroke-width="1.3"/>
<text x="813.0" y="344.4" font-size="9" text-anchor="middle" fill="#1F2A24">Raise a defect</text>
<text x="813.0" y="355.4" font-size="7.4" text-anchor="middle" fill="#5B6B62">om_defects [open →</text>
<text x="813.0" y="364.0" font-size="7.4" text-anchor="middle" fill="#5B6B62">acknowledged → in_repair →</text>
<text x="813.0" y="372.6" font-size="7.4" text-anchor="middle" fill="#5B6B62">resolved | escalated]</text>
<text x="813.0" y="392.5" font-size="7.6" font-style="italic" text-anchor="middle" fill="#E4702A">⚠ four severities and five</text>
<text x="813.0" y="401.9" font-size="7.6" font-style="italic" text-anchor="middle" fill="#E4702A">states, and no gate on</text>
<text x="813.0" y="411.3" font-size="7.6" font-style="italic" text-anchor="middle" fill="#E4702A">escalation</text>
<rect x="897.0" y="330.3" width="132" height="42.6" rx="5" fill="#fff" stroke="#1F6F3F" stroke-width="1.3"/>
<text x="963.0" y="342.8" font-size="9" text-anchor="middle" fill="#1F2A24">Submit the visit for</text>
<text x="963.0" y="353.8" font-size="9" text-anchor="middle" fill="#1F2A24">sign-off</text>
<text x="963.0" y="364.8" font-size="7.4" text-anchor="middle" fill="#5B6B62">approval_requests [pending]</text>
<text x="963.0" y="384.7" font-size="7.6" font-style="italic" text-anchor="middle" fill="#E4702A">⚠ a real approval request,</text>
<text x="963.0" y="394.1" font-size="7.6" font-style="italic" text-anchor="middle" fill="#E4702A">built from the gate row with</text>
<text x="963.0" y="403.5" font-size="7.6" font-style="italic" text-anchor="middle" fill="#E4702A">the approver role copied</text>
<text x="963.0" y="412.9" font-size="7.6" font-style="italic" text-anchor="middle" fill="#E4702A">onto it — the right pattern</text>
<rect x="1047.0" y="178.2" width="132" height="31.6" rx="5" fill="#fff" stroke="#1F6F3F" stroke-width="1.3"/>
<text x="1113.0" y="190.7" font-size="9" text-anchor="middle" fill="#1F2A24">Approve the sign-off</text>
<text x="1113.0" y="201.7" font-size="7.4" text-anchor="middle" fill="#5B6B62">om_visits [signed_off]</text>
<rect x="1078.6" y="212.8" width="68.8" height="13" rx="6.5" fill="#1F6F3F"/>
<text x="1113.0" y="222.4" font-size="7.6" font-weight="bold" text-anchor="middle" fill="#fff">G34 O&amp;M Lead</text>
<text x="1113.0" y="237.6" font-size="7.6" font-style="italic" text-anchor="middle" fill="#E4702A">⚠ approved by its own patch:</text>
<text x="1113.0" y="247.0" font-size="7.6" font-style="italic" text-anchor="middle" fill="#E4702A">no R6 self-approval refusal</text>
<text x="1113.0" y="256.4" font-size="7.6" font-style="italic" text-anchor="middle" fill="#E4702A">and no role check. The field</text>
<text x="1113.0" y="265.8" font-size="7.6" font-style="italic" text-anchor="middle" fill="#E4702A">is gate30ApprovalId, the</text>
<text x="1113.0" y="275.2" font-size="7.6" font-style="italic" text-anchor="middle" fill="#E4702A">request says gate 34, and</text>
<text x="1113.0" y="284.6" font-size="7.6" font-style="italic" text-anchor="middle" fill="#E4702A">the specification calls</text>
<text x="1113.0" y="294.0" font-size="7.6" font-style="italic" text-anchor="middle" fill="#E4702A">neither a service report</text>
<text x="1113.0" y="303.4" font-size="7.6" font-style="italic" text-anchor="middle" fill="#E4702A">sign-off</text>
<rect x="1197.0" y="658.2" width="132" height="42.6" rx="5" fill="#F6F8F6" stroke="#5B6B62" stroke-width="1.3"/>
<text x="1263.0" y="670.7" font-size="9" text-anchor="middle" fill="#1F2A24">The next visit date</text>
<text x="1263.0" y="681.7" font-size="9" text-anchor="middle" fill="#1F2A24">advances</text>
<text x="1263.0" y="692.7" font-size="7.4" text-anchor="middle" fill="#5B6B62">om_schedules</text>
<text x="1263.0" y="712.6" font-size="7.6" font-style="italic" text-anchor="middle" fill="#E4702A">⚠ never happens — the schema</text>
<text x="1263.0" y="722.0" font-size="7.6" font-style="italic" text-anchor="middle" fill="#E4702A">says it is updated after</text>
<text x="1263.0" y="731.4" font-size="7.6" font-style="italic" text-anchor="middle" fill="#E4702A">each visit and no code does</text>
<text x="1263.0" y="740.8" font-size="7.6" font-style="italic" text-anchor="middle" fill="#E4702A">it. Nothing ever falls due</text>
<rect x="1347.0" y="333.6" width="132" height="20.0" rx="5" fill="#fff" stroke="#1F6F3F" stroke-width="1.3"/>
<text x="1413.0" y="346.1" font-size="9" text-anchor="middle" fill="#1F2A24">Submit a warranty claim</text>
<rect x="1378.6" y="356.6" width="68.8" height="13" rx="6.5" fill="#1F6F3F"/>
<text x="1413.0" y="366.2" font-size="7.6" font-weight="bold" text-anchor="middle" fill="#fff">G34 O&amp;M Lead</text>
<text x="1413.0" y="381.4" font-size="7.6" font-style="italic" text-anchor="middle" fill="#E4702A">⚠ there is no warranty claim</text>
<text x="1413.0" y="390.8" font-size="7.6" font-style="italic" text-anchor="middle" fill="#E4702A">record anywhere;</text>
<text x="1413.0" y="400.2" font-size="7.6" font-style="italic" text-anchor="middle" fill="#E4702A">warranty_claim exists only</text>
<text x="1413.0" y="409.6" font-size="7.6" font-style="italic" text-anchor="middle" fill="#E4702A">as a document category</text>
<rect x="1497.0" y="640.2" width="132" height="31.6" rx="5" fill="#F6F8F6" stroke="#5B6B62" stroke-width="1.3"/>
<text x="1563.0" y="652.7" font-size="9" text-anchor="middle" fill="#1F2A24">The gate engine</text>
<text x="1563.0" y="663.7" font-size="7.4" text-anchor="middle" fill="#5B6B62">foundation/gates.ts</text>
<text x="1563.0" y="683.6" font-size="7.6" font-style="italic" text-anchor="middle" fill="#E4702A">⚠ a complete correct engine:</text>
<text x="1563.0" y="693.0" font-size="7.6" font-style="italic" text-anchor="middle" fill="#E4702A">R6 self-approval refusal in</text>
<text x="1563.0" y="702.4" font-size="7.6" font-style="italic" text-anchor="middle" fill="#E4702A">the specification&#x27;s own</text>
<text x="1563.0" y="711.8" font-size="7.6" font-style="italic" text-anchor="middle" fill="#E4702A">words, primary and alternate</text>
<text x="1563.0" y="721.2" font-size="7.6" font-style="italic" text-anchor="middle" fill="#E4702A">role checks, no-alternate</text>
<text x="1563.0" y="730.6" font-size="7.6" font-style="italic" text-anchor="middle" fill="#E4702A">respected. Twelve approval</text>
<text x="1563.0" y="740.0" font-size="7.6" font-style="italic" text-anchor="middle" fill="#E4702A">points in six modules take a</text>
<text x="1563.0" y="749.4" font-size="7.6" font-style="italic" text-anchor="middle" fill="#E4702A">string instead and never</text>
<text x="1563.0" y="758.8" font-size="7.6" font-style="italic" text-anchor="middle" fill="#E4702A">call it</text>
<path d="M279.0,461.1 L288.0,461.1 L288.0,109.5 L292.0,109.5" fill="none" stroke="#3C5A48" stroke-width="1.2"/>
<polygon points="291.0,106.0 297.0,109.5 291.0,113.0" fill="#3C5A48"/>
<path d="M429.0,109.5 L438.0,109.5 L438.0,212.8 L442.0,212.8" fill="none" stroke="#3C5A48" stroke-width="1.2"/>
<polygon points="441.0,209.3 447.0,212.8 441.0,216.3" fill="#3C5A48"/>
<path d="M579.0,212.8 L588.0,212.8 L588.0,670.1 L592.0,670.1" fill="none" stroke="#3C5A48" stroke-width="1.2"/>
<polygon points="591.0,666.6 597.0,670.1 591.0,673.6" fill="#3C5A48"/>
<path d="M729.0,670.1 L738.0,670.1 L738.0,566.0 L742.0,566.0" fill="none" stroke="#3C5A48" stroke-width="1.2"/>
<polygon points="741.0,562.5 747.0,566.0 741.0,569.5" fill="#3C5A48"/>
<path d="M279.0,356.3 L288.0,356.3 L288.0,346.9 L292.0,346.9" fill="none" stroke="#3C5A48" stroke-width="1.2"/>
<polygon points="291.0,343.4 297.0,346.9 291.0,350.4" fill="#3C5A48"/>
<path d="M429.0,346.9 L438.0,346.9 L438.0,351.6 L442.0,351.6" fill="none" stroke="#3C5A48" stroke-width="1.2"/>
<polygon points="441.0,348.1 447.0,351.6 441.0,355.1" fill="#3C5A48"/>
<path d="M579.0,351.6 L588.0,351.6 L588.0,351.6 L592.0,351.6" fill="none" stroke="#3C5A48" stroke-width="1.2"/>
<polygon points="591.0,348.1 597.0,351.6 591.0,355.1" fill="#3C5A48"/>
<path d="M729.0,351.6 L738.0,351.6 L738.0,356.3 L742.0,356.3" fill="none" stroke="#3C5A48" stroke-width="1.2"/>
<polygon points="741.0,352.8 747.0,356.3 741.0,359.8" fill="#3C5A48"/>
<path d="M879.0,356.3 L888.0,356.3 L888.0,351.6 L892.0,351.6" fill="none" stroke="#3C5A48" stroke-width="1.2"/>
<polygon points="891.0,348.1 897.0,351.6 891.0,355.1" fill="#3C5A48"/>
<path d="M1029.0,351.6 L1038.0,351.6 L1038.0,194.0 L1042.0,194.0" fill="none" stroke="#3C5A48" stroke-width="1.2"/>
<polygon points="1041.0,190.5 1047.0,194.0 1041.0,197.5" fill="#3C5A48"/>
<path d="M1179.0,194.0 L1188.0,194.0 L1188.0,679.5 L1192.0,679.5" fill="none" stroke="#3C5A48" stroke-width="1.2"/>
<polygon points="1191.0,676.0 1197.0,679.5 1191.0,683.0" fill="#3C5A48"/>
<path d="M1329.0,679.5 L1338.0,679.5 L1338.0,343.6 L1342.0,343.6" fill="none" stroke="#3C5A48" stroke-width="1.2"/>
<polygon points="1341.0,340.1 1347.0,343.6 1341.0,347.1" fill="#3C5A48"/>
<path d="M1479.0,343.6 L1488.0,343.6 L1488.0,656.0 L1492.0,656.0" fill="none" stroke="#3C5A48" stroke-width="1.2"/>
<polygon points="1491.0,652.5 1497.0,656.0 1491.0,659.5" fill="#3C5A48"/>
<path d="M813.0,331.9 L813.0,67.0 L363.0,67.0 L363.0,326.1" fill="none" stroke="#E4702A" stroke-width="1.2" stroke-dasharray="4,3"/>
<polygon points="359.5,325.1 363.0,331.1 366.5,325.1" fill="#E4702A"/>
<text x="588.0" y="64.0" font-size="7.4" text-anchor="middle" fill="#E4702A">a defect brings the next visit forward</text>
<path d="M1113.0,178.2 L1113.0,56.0 L513.0,56.0 L513.0,321.0" fill="none" stroke="#E4702A" stroke-width="1.2" stroke-dasharray="4,3"/>
<polygon points="509.5,320.0 513.0,326.0 516.5,320.0" fill="#E4702A"/>
<text x="813.0" y="53.0" font-size="7.4" text-anchor="middle" fill="#E4702A">rejected: the visit goes back to completed</text>
<rect x="8" y="777" width="2184" height="26" fill="#FFF4E5" stroke="#E4702A"/>
<text x="16" y="793" font-size="9" fill="#1F2A24"><tspan font-weight="bold" fill="#E4702A">⚠ Live build deviates here today:</tspan> The platform has a complete and correct approval engine — R6 self-approval refusal, primary and alternate role checks — and twelve approval points across six modules take an approval reference as a plain string instead of calling it · gate 21 turnover has no code · gate 34 is consumed by the visit sign-off and the warranty claim it names has no record · the maintenance schedule never rolls forward</text>
<text x="12" y="816" font-size="9.6" font-weight="bold" fill="#1F2A24">How to read</text>
<rect x="92" y="806" width="46" height="13" rx="5" fill="#fff" stroke="#1F6F3F" stroke-width="1.3"/><text x="144" y="816" font-size="8.8" fill="#1F2A24">A step by a person, with the record and its new state beneath.</text>
<polygon points="115,822 138,830 115,838 92,830" fill="#fff" stroke="#E4702A" stroke-width="1.3"/><text x="144" y="833" font-size="8.8" fill="#1F2A24">A decision the process branches on.   </text>
<rect x="422" y="806" width="46" height="13" rx="5" fill="#F6F8F6" stroke="#5B6B62" stroke-width="1.3"/><text x="474" y="816" font-size="8.8" fill="#1F2A24">Automatic — the platform acts, nobody is Responsible.</text>
<rect x="422" y="823" width="46" height="13" rx="5" fill="#fff" stroke="#8A6D3B" stroke-width="1.3" stroke-dasharray="4,3"/><text x="474" y="833" font-size="8.8" fill="#1F2A24">Outside the company — client, supplier, authority.</text>
<rect x="792" y="806" width="72" height="13" rx="6.5" fill="#1F6F3F"/><text x="796" y="815.5" font-size="7.4" font-weight="bold" fill="#fff">G6 Director·COO</text><text x="870" y="816" font-size="8.8" fill="#1F2A24">Gate: number · primary (Accountable) · alternate (Consulted) · window.</text>
<rect x="792" y="823" width="46" height="13" rx="3" fill="#FDECEA" stroke="#B3261E" stroke-width="1.3"/><text x="798" y="833" font-size="7.8" font-weight="bold" fill="#B3261E">HB6</text><text x="870" y="833" font-size="8.8" fill="#1F2A24">Hard block: cannot proceed until the precondition exists.  <tspan fill="#E4702A">⚠ live deviation</tspan>  <tspan fill="#E4702A" stroke-dasharray="4,3">- - orange: return path</tspan></text>
<text x="2188" y="847" font-size="8" text-anchor="end" fill="#5B6B62">Key: CEO Chief Executive Officer · COO Chief Operating Officer · PM Project Manager · PIC Person In Charge · 2d/3d working-day window · [state] from the schema</text>
</svg>